<svg width="28" height="28" viewBox="0 0 28 28" fill="none" xmlns="http://www.w3.org/2000/svg">
<path d="M14.0007 25.2628C13.639 25.2628 13.289 25.2161 12.9973 25.1111C8.54065 23.5828 1.45898 18.1578 1.45898 10.1428C1.45898 6.05943 4.76065 2.74609 8.82065 2.74609C10.7923 2.74609 12.6357 3.51609 14.0007 4.89276C15.3657 3.51609 17.209 2.74609 19.1807 2.74609C23.2407 2.74609 26.5423 6.07109 26.5423 10.1428C26.5423 18.1694 19.4606 23.5828 15.004 25.1111C14.7123 25.2161 14.3623 25.2628 14.0007 25.2628ZM8.82065 4.49609C5.72898 4.49609 3.20898 7.02776 3.20898 10.1428C3.20898 18.1111 10.874 22.5444 13.569 23.4661C13.779 23.5361 14.234 23.5361 14.444 23.4661C17.1273 22.5444 24.804 18.1228 24.804 10.1428C24.804 7.02776 22.284 4.49609 19.1923 4.49609C17.419 4.49609 15.774 5.32443 14.7123 6.75943C14.3857 7.20276 13.639 7.20276 13.3123 6.75943C12.2273 5.31276 10.594 4.49609 8.82065 4.49609Z" fill="white"/>
</svg>
