<svg width="28" height="28" viewBox="0 0 28 28" fill="none" xmlns="http://www.w3.org/2000/svg">
<path d="M20.9997 9.22709C20.9647 9.22709 20.9414 9.22709 20.9064 9.22709H20.848C18.643 9.15709 16.998 7.45375 16.998 5.35375C16.998 3.20709 18.748 1.46875 20.883 1.46875C23.018 1.46875 24.7681 3.21875 24.7681 5.35375C24.7564 7.46542 23.1114 9.16875 21.0114 9.23875C21.0114 9.22709 21.0114 9.22709 20.9997 9.22709ZM20.883 3.20709C19.7047 3.20709 18.748 4.16376 18.748 5.34209C18.748 6.49709 19.6464 7.43043 20.8014 7.47709C20.813 7.46543 20.9064 7.46543 21.0114 7.47709C22.143 7.41876 23.018 6.48543 23.0297 5.34209C23.0297 4.16376 22.073 3.20709 20.883 3.20709Z" fill="white"/>
<path d="M21.0113 17.8255C20.5563 17.8255 20.1013 17.7905 19.6463 17.7088C19.1679 17.6271 18.8529 17.1721 18.9346 16.6938C19.0163 16.2155 19.4713 15.9005 19.9496 15.9821C21.3846 16.2271 22.9013 15.9588 23.9163 15.2821C24.4646 14.9205 24.7563 14.4655 24.7563 14.0105C24.7563 13.5555 24.4529 13.1121 23.9163 12.7505C22.9013 12.0738 21.3613 11.8055 19.9146 12.0621C19.4363 12.1555 18.9813 11.8288 18.8996 11.3505C18.8179 10.8721 19.1329 10.4171 19.6113 10.3355C21.5129 9.99713 23.4846 10.3588 24.8846 11.2921C25.9113 11.9804 26.5063 12.9605 26.5063 14.0105C26.5063 15.0488 25.9229 16.0405 24.8846 16.7405C23.8229 17.4405 22.4463 17.8255 21.0113 17.8255Z" fill="white"/>
<path d="M6.96457 9.22704C6.95291 9.22704 6.94124 9.22704 6.94124 9.22704C4.84124 9.15704 3.19624 7.45369 3.18457 5.35369C3.18457 3.20703 4.93457 1.45703 7.06957 1.45703C9.20457 1.45703 10.9546 3.20703 10.9546 5.34203C10.9546 7.4537 9.30957 9.15704 7.20957 9.22704L6.96457 8.35204L7.04624 9.22704C7.02291 9.22704 6.98791 9.22704 6.96457 9.22704ZM7.08124 7.47704C7.15124 7.47704 7.20957 7.47703 7.27957 7.4887C8.31791 7.44203 9.2279 6.50869 9.2279 5.35369C9.2279 4.17536 8.27124 3.21869 7.09291 3.21869C5.91457 3.21869 4.9579 4.17536 4.9579 5.35369C4.9579 6.49703 5.84457 7.4187 6.97624 7.4887C6.9879 7.47703 7.03457 7.47704 7.08124 7.47704Z" fill="white"/>
<path d="M6.95301 17.8255C5.51801 17.8255 4.14134 17.4405 3.07967 16.7405C2.05301 16.0521 1.45801 15.0605 1.45801 14.0105C1.45801 12.9721 2.05301 11.9804 3.07967 11.2921C4.47967 10.3588 6.45134 9.99713 8.35301 10.3355C8.83134 10.4171 9.14634 10.8721 9.06467 11.3505C8.98301 11.8288 8.52801 12.1555 8.04968 12.0621C6.60301 11.8055 5.07468 12.0738 4.04801 12.7505C3.49968 13.1121 3.20801 13.5555 3.20801 14.0105C3.20801 14.4655 3.51134 14.9205 4.04801 15.2821C5.06301 15.9588 6.57967 16.2271 8.01467 15.9821C8.49301 15.9005 8.94801 16.2271 9.02968 16.6938C9.11134 17.1721 8.79634 17.6271 8.31801 17.7088C7.86301 17.7905 7.40801 17.8255 6.95301 17.8255Z" fill="white"/>
<path d="M13.9997 17.9419C13.9647 17.9419 13.9414 17.9419 13.9064 17.9419H13.848C11.643 17.8719 9.99805 16.1686 9.99805 14.0686C9.99805 11.9219 11.748 10.1836 13.883 10.1836C16.018 10.1836 17.768 11.9336 17.768 14.0686C17.7564 16.1803 16.1114 17.8836 14.0114 17.9536C14.0114 17.9419 14.0114 17.9419 13.9997 17.9419ZM13.883 11.9219C12.7047 11.9219 11.748 12.8786 11.748 14.0569C11.748 15.2119 12.6464 16.1453 13.8014 16.1919C13.813 16.1803 13.9064 16.1803 14.0114 16.1919C15.143 16.1336 16.018 15.2003 16.0297 14.0569C16.0297 12.8903 15.073 11.9219 13.883 11.9219Z" fill="white"/>
<path d="M13.9998 26.5519C12.5998 26.5519 11.1998 26.1902 10.1148 25.4552C9.08816 24.7669 8.49316 23.7869 8.49316 22.7369C8.49316 21.6986 9.0765 20.6952 10.1148 20.0069C12.2965 18.5602 15.7148 18.5602 17.8848 20.0069C18.9115 20.6952 19.5065 21.6752 19.5065 22.7252C19.5065 23.7635 18.9232 24.7669 17.8848 25.4552C16.7998 26.1786 15.3998 26.5519 13.9998 26.5519ZM11.0832 21.4769C10.5348 21.8386 10.2432 22.2935 10.2432 22.7485C10.2432 23.2035 10.5465 23.6469 11.0832 24.0086C12.6582 25.0702 15.3298 25.0702 16.9048 24.0086C17.4532 23.6469 17.7448 23.1919 17.7448 22.7369C17.7448 22.2819 17.4415 21.8386 16.9048 21.4769C15.3415 20.4152 12.6698 20.4269 11.0832 21.4769Z" fill="white"/>
</svg>
