<svg width="28" height="28" viewBox="0 0 28 28" fill="none" xmlns="http://www.w3.org/2000/svg">
<path d="M17.4997 26.5404H10.4997C4.16467 26.5404 1.45801 23.8337 1.45801 17.4987V10.4987C1.45801 4.1637 4.16467 1.45703 10.4997 1.45703H17.4997C23.8347 1.45703 26.5413 4.1637 26.5413 10.4987V17.4987C26.5413 23.8337 23.8347 26.5404 17.4997 26.5404ZM10.4997 3.20703C5.12134 3.20703 3.20801 5.12036 3.20801 10.4987V17.4987C3.20801 22.877 5.12134 24.7904 10.4997 24.7904H17.4997C22.878 24.7904 24.7913 22.877 24.7913 17.4987V10.4987C24.7913 5.12036 22.878 3.20703 17.4997 3.20703H10.4997Z" fill="white"/>
<path d="M25.0604 20.8359H2.94043C2.4621 20.8359 2.06543 20.4393 2.06543 19.9609C2.06543 19.4826 2.4621 19.0859 2.94043 19.0859H25.0604C25.5388 19.0859 25.9354 19.4826 25.9354 19.9609C25.9354 20.4393 25.5504 20.8359 25.0604 20.8359Z" fill="white"/>
<path d="M25.0604 9.17188H2.94043C2.4621 9.17188 2.06543 8.77521 2.06543 8.29688C2.06543 7.81854 2.45043 7.42188 2.94043 7.42188H25.0604C25.5388 7.42188 25.9354 7.81854 25.9354 8.29688C25.9354 8.77521 25.5504 9.17188 25.0604 9.17188Z" fill="white"/>
<path d="M8.13184 25.9109C7.6535 25.9109 7.25684 25.5143 7.25684 25.0359V19.9609C7.25684 19.4826 7.6535 19.0859 8.13184 19.0859C8.61017 19.0859 9.00684 19.4826 9.00684 19.9609V25.0359C9.00684 25.5259 8.61017 25.9109 8.13184 25.9109Z" fill="white"/>
<path d="M14 26.5059C13.5217 26.5059 13.125 26.1093 13.125 25.6309V19.9609C13.125 19.4826 13.5217 19.0859 14 19.0859C14.4783 19.0859 14.875 19.4826 14.875 19.9609V25.6309C14.875 26.1093 14.4783 26.5059 14 26.5059Z" fill="white"/>
<path d="M19.7979 25.9809C19.3195 25.9809 18.9229 25.5843 18.9229 25.1059V19.9609C18.9229 19.4826 19.3195 19.0859 19.7979 19.0859C20.2762 19.0859 20.6729 19.4826 20.6729 19.9609V25.1059C20.6729 25.5959 20.2762 25.9809 19.7979 25.9809Z" fill="white"/>
<path d="M8.13184 8.41094C7.6535 8.41094 7.25684 8.01427 7.25684 7.53594V2.46094C7.25684 1.9826 7.6535 1.58594 8.13184 1.58594C8.61017 1.58594 9.00684 1.9826 9.00684 2.46094V7.53594C9.00684 8.02594 8.61017 8.41094 8.13184 8.41094Z" fill="white"/>
<path d="M14 9.00594C13.5217 9.00594 13.125 8.60927 13.125 8.13094V2.46094C13.125 1.9826 13.5217 1.58594 14 1.58594C14.4783 1.58594 14.875 1.9826 14.875 2.46094V8.13094C14.875 8.60927 14.4783 9.00594 14 9.00594Z" fill="white"/>
<path d="M14 21.9115C13.5217 21.9115 13.125 21.5148 13.125 21.0365V8.20312C13.125 7.72479 13.5217 7.32812 14 7.32812C14.4783 7.32812 14.875 7.72479 14.875 8.20312V21.0365C14.875 21.5148 14.4783 21.9115 14 21.9115Z" fill="white"/>
<path d="M19.7979 8.48094C19.3195 8.48094 18.9229 8.08427 18.9229 7.60594V2.46094C18.9229 1.9826 19.3195 1.58594 19.7979 1.58594C20.2762 1.58594 20.6729 1.9826 20.6729 2.46094V7.60594C20.6729 8.09594 20.2762 8.48094 19.7979 8.48094Z" fill="white"/>
</svg>
